<svg width="28" height="28" viewBox="0 0 28 28" fill="none" xmlns="http://www.w3.org/2000/svg">
  <path d="M14 5.25C9.16751 5.25 5.25 9.16751 5.25 14C5.25 18.8325 9.16751 22.75 14 22.75C18.8325 22.75 22.75 18.8325 22.75 14C22.75 9.16751 18.8325 5.25 14 5.25ZM14 20.125C10.6079 20.125 7.875 17.3921 7.875 14C7.875 10.6079 10.6079 7.875 14 7.875C17.3921 7.875 20.125 10.6079 20.125 14C20.125 17.3921 17.3921 20.125 14 20.125Z" fill="white"/>
  <path d="M14 10.5C15.933 10.5 17.5 12.067 17.5 14C17.5 15.933 15.933 17.5 14 17.5C12.067 17.5 10.5 15.933 10.5 14C10.5 12.067 12.067 10.5 14 10.5Z" fill="white"/>
  <path d="M25.375 12.6875H23.625C23.246 12.6875 22.9375 12.986 22.9375 13.3651C22.9375 13.7441 23.246 14.0426 23.625 14.0426H25.375C25.754 14.0426 26.0625 13.7441 26.0625 13.3651C26.0625 12.986 25.754 12.6875 25.375 12.6875Z" fill="white"/>
  <path d="M4.375 12.6875H2.625C2.246 12.6875 1.9375 12.986 1.9375 13.3651C1.9375 13.7441 2.246 14.0426 2.625 14.0426H4.375C4.754 14.0426 5.0625 13.7441 5.0625 13.3651C5.0625 12.986 4.754 12.6875 4.375 12.6875Z" fill="white"/>
  <path d="M14 1.9375C13.6209 1.9375 13.3125 2.246 13.3125 2.625V4.375C13.3125 4.754 13.6209 5.0625 14 5.0625C14.3791 5.0625 14.6875 4.754 14.6875 4.375V2.625C14.6875 2.246 14.3791 1.9375 14 1.9375Z" fill="white"/>
  <path d="M14 22.9375C13.6209 22.9375 13.3125 23.246 13.3125 23.625V25.375C13.3125 25.754 13.6209 26.0625 14 26.0625C14.3791 26.0625 14.6875 25.754 14.6875 25.375V23.625C14.6875 23.246 14.3791 22.9375 14 22.9375Z" fill="white"/>
  <path d="M20.9297 5.95431L19.7172 7.16681C19.4516 7.43231 19.4516 7.86556 19.7172 8.13106C19.8499 8.26381 20.0227 8.33012 20.196 8.33012C20.3692 8.33012 20.542 8.26381 20.6747 8.13106L21.8872 6.91856C22.1528 6.65306 22.1528 6.21981 21.8872 5.95431C21.6217 5.68881 21.1885 5.68881 20.9229 5.95431H20.9297Z" fill="white"/>
  <path d="M7.32982 19.5342L6.11732 20.7467C5.85182 21.0122 5.85182 21.4455 6.11732 21.711C6.25007 21.8437 6.42295 21.91 6.59618 21.91C6.76941 21.91 6.94229 21.8437 7.07504 21.711L8.28754 20.4985C8.55304 20.233 8.55304 19.7997 8.28754 19.5342C8.02204 19.2687 7.58879 19.2687 7.32329 19.5342H7.32982Z" fill="white"/>
  <path d="M7.07504 6.91853L5.86254 5.70603C5.59704 5.44053 5.16379 5.44053 4.89829 5.70603C4.63279 5.97153 4.63279 6.40478 4.89829 6.67028L6.11079 7.88278C6.24354 8.01553 6.41641 8.08184 6.58964 8.08184C6.76288 8.08184 6.93575 8.01553 7.0685 7.88278C7.334 7.61728 7.334 7.18403 7.0685 6.91853H7.07504Z" fill="white"/>
  <path d="M21.711 19.5342C21.4455 19.2687 21.0122 19.2687 20.7467 19.5342C20.4812 19.7997 20.4812 20.233 20.7467 20.4985L21.9592 21.711C22.092 21.8437 22.2648 21.91 22.4381 21.91C22.6113 21.91 22.7842 21.8437 22.9169 21.711C23.1824 21.4455 23.1824 21.0122 22.9169 20.7467L21.7044 19.5342H21.711Z" fill="white"/>
</svg>