<svg width="28" height="28" viewBox="0 0 28 28" fill="none" xmlns="http://www.w3.org/2000/svg">
  <path d="M11.6667 24.5H16.3333V21H11.6667V24.5ZM14 2.33334C7.56667 2.33334 2.33334 7.56667 2.33334 14H5.83334C5.83334 9.5 9.5 5.83334 14 5.83334C18.5 5.83334 22.1667 9.5 22.1667 14C22.1667 18.5 18.5 22.1667 14 22.1667V25.6667C20.4333 25.6667 25.6667 20.4333 25.6667 14C25.6667 7.56667 20.4333 2.33334 14 2.33334ZM18.6667 17.5H22.1667C22.1667 15.3833 21.3 13.3 19.8333 11.8333L17.5 14.1667C18.2333 15.1333 18.6667 16.2667 18.6667 17.5ZM14 9.33334C11.1667 9.33334 9.33334 11.6667 9.33334 14H12.8333C12.8333 13.3 13.3 12.8333 14 12.8333C14.7 12.8333 15.1667 13.3 15.1667 14C15.1667 15.4 12.8333 15.1667 12.8333 18.0833H16.3333C16.3333 16.1 18.6667 15.8667 18.6667 14C18.6667 11.6667 16.8333 9.33334 14 9.33334Z" fill="white"/>
</svg>