<svg width="28" height="28" viewBox="0 0 28 28" fill="none" xmlns="http://www.w3.org/2000/svg">
  <path d="M14 0C6.26801 0 0 6.26801 0 14C0 21.732 6.26801 28 14 28C21.732 28 28 21.732 28 14C28 6.26801 21.732 0 14 0ZM14 4.66667C16.5229 4.66667 18.6667 6.79706 18.6667 9.33333C18.6667 11.8696 16.5229 14 14 14C11.4771 14 9.33333 11.8696 9.33333 9.33333C9.33333 6.79706 11.4771 4.66667 14 4.66667ZM14 24.2667C10.5 24.2667 7.37017 22.4883 5.44683 19.8333C5.5078 16.9167 11.6667 15.3067 14 15.3067C16.3217 15.3067 22.4922 16.9167 22.5532 19.8333C20.6298 22.4883 17.5 24.2667 14 24.2667Z" fill="white"/>
</svg>