<svg width="28" height="28" viewBox="0 0 28 28" fill="none" xmlns="http://www.w3.org/2000/svg">
  <path d="M14 3.5C8.20101 3.5 3.5 8.20101 3.5 14C3.5 19.799 8.20101 24.5 14 24.5C19.799 24.5 24.5 19.799 24.5 14C24.5 8.20101 19.799 3.5 14 3.5ZM14 22.75C9.17383 22.75 5.25 18.8262 5.25 14C5.25 9.17383 9.17383 5.25 14 5.25C18.8262 5.25 22.75 9.17383 22.75 14C22.75 18.8262 18.8262 22.75 14 22.75Z" fill="white"/>
  <path d="M14 7.875C10.6079 7.875 7.875 10.6079 7.875 14C7.875 17.3921 10.6079 20.125 14 20.125C17.3921 20.125 20.125 17.3921 20.125 14C20.125 10.6079 17.3921 7.875 14 7.875ZM14 18.375C11.5784 18.375 9.625 16.4216 9.625 14C9.625 11.5784 11.5784 9.625 14 9.625C16.4216 9.625 18.375 11.5784 18.375 14C18.375 16.4216 16.4216 18.375 14 18.375Z" fill="white"/>
  <path d="M14 12.25C13.0335 12.25 12.25 13.0335 12.25 14C12.25 14.9665 13.0335 15.75 14 15.75C14.9665 15.75 15.75 14.9665 15.75 14C15.75 13.0335 14.9665 12.25 14 12.25Z" fill="white"/>
  <path d="M14 0C13.6209 0 13.3125 0.309509 13.3125 0.6875V3.5C13.3125 3.87799 13.6209 4.1875 14 4.1875C14.3791 4.1875 14.6875 3.87799 14.6875 3.5V0.6875C14.6875 0.309509 14.3791 0 14 0Z" fill="white"/>
  <path d="M14 23.8125C13.6209 23.8125 13.3125 24.122 13.3125 24.5V27.3125C13.3125 27.6905 13.6209 28 14 28C14.3791 28 14.6875 27.6905 14.6875 27.3125V24.5C14.6875 24.122 14.3791 23.8125 14 23.8125Z" fill="white"/>
  <path d="M28 14C28 13.6209 27.6905 13.3125 27.3125 13.3125H24.5C24.122 13.3125 23.8125 13.6209 23.8125 14C23.8125 14.3791 24.122 14.6875 24.5 14.6875H27.3125C27.6905 14.6875 28 14.3791 28 14Z" fill="white"/>
  <path d="M4.1875 14C4.1875 13.6209 3.87799 13.3125 3.5 13.3125H0.6875C0.309509 13.3125 0 13.6209 0 14C0 14.3791 0.309509 14.6875 0.6875 14.6875H3.5C3.87799 14.6875 4.1875 14.3791 4.1875 14Z" fill="white"/>
</svg>